<svg width="24" height="24" viewBox="0 0 24 24" fill="none" xmlns="http://www.w3.org/2000/svg">
<g clip-path="url(#clip0_2029_5864)">
<path fill-rule="evenodd" clip-rule="evenodd" d="M19.0588 0.706055C21.3497 1.12896 22.9286 2.64067 23.2941 4.94092C23.3125 5.05692 23.3314 5.17506 23.3507 5.29531C23.6377 7.08936 24 9.35388 24 12C24 14.8235 23.6625 17.25 23.2941 19.0591C22.8293 21.3413 21.3398 22.821 19.0588 23.2939C17.1 23.7 14.8235 24 12 24C9.17651 24 6.9 23.7 4.94121 23.2939C2.66016 22.821 1.1707 21.3413 0.705908 19.0591C0.3375 17.25 0 14.8235 0 12C0 9.35387 0.362305 7.08935 0.649338 5.29529C0.668577 5.17505 0.687478 5.05691 0.705908 4.94092C1.07139 2.64067 2.65034 1.12896 4.94121 0.706055C6.9375 0.3375 9.17651 0 12 0C14.8235 0 17.0625 0.3375 19.0588 0.706055ZM4 7.26531L7.33333 4H20V13.1429L14 19.0204H11.3333L8 22.2857V19.0204H4V7.26531ZM16 15.102L18.6667 12.4898V5.30612H8V15.102H11V17.3878L13.3333 15.102H16ZM15.3333 7.59184H16.6667V11.5102H15.3333V7.59184ZM13 7.59184H11.6667V11.5102H13V7.59184Z" fill="#7D9DBA"/>
</g>
<defs>
<clipPath id="clip0_2029_5864">
<rect width="24" height="24" fill="white"/>
</clipPath>
</defs>
</svg>
